# This file uses meters as units for non-parametric coordinates.

mtllib dividerCorner.mtl
g default
v 0.000000 0.000000 0.000000
v 100.856537 0.000000 -0.000008
v 100.000031 0.000000 239.999969
v -70.710709 0.000000 70.710686
vt 0.000000 0.000000
vt 0.416667 0.000000
vt 0.416667 1.000000
vt 0.000000 0.000000
vt 0.416667 0.000000
vt 0.000000 1.000000
vn 0.000000 -1.000000 0.000000
vn 0.000000 -1.000000 0.000000
vn 0.000000 -1.000000 0.000000
vn 0.000000 -1.000000 0.000000
vn 0.000000 -1.000000 0.000000
vn 0.000000 -1.000000 0.000000
s off
g divCrn_obj
usemtl initialShadingGroup
f 1/1/1 2/2/2 3/3/3
f 4/4/4 1/5/5 3/6/6
