# This file uses meters as units for non-parametric coordinates.

mtllib platform.mtl
g default
v -100.000000 10.000000 0.000000
v 100.000000 10.000000 0.000000
v -93.442726 -10.000000 -0.000008
v 93.442726 -10.000000 -0.000008
v -92.350128 -10.000000 49.239429
v -57.992641 -10.000000 91.002365
v -100.000000 10.000000 52.051575
v -60.004028 10.000000 100.000000
v 92.350128 -10.000000 49.239429
v 57.992641 -10.000000 91.002365
v 100.000000 10.000000 52.051575
v 60.004028 10.000000 100.000000
v -100.479004 6.000000 -0.883141
v -100.479004 6.000000 52.057739
v -60.291451 6.000000 99.957382
v 60.291451 6.000000 99.957382
v 100.479004 6.000000 52.057739
v 100.479004 6.000000 -0.883141
vt 0.625000 0.500000
vt 0.375000 0.750000
vt 0.625000 0.750000
vt 0.625000 0.900010
vt 0.575005 1.000000
vt 0.424995 1.000000
vt 0.375000 0.900010
vt 0.375000 0.349990
vt 0.625000 0.349990
vt 0.375000 0.500000
vt 0.125000 0.000000
vt 0.275010 -0.000000
vt 0.125000 0.250000
vt 0.424995 0.250000
vt 0.575005 0.000000
vt 0.724990 0.250000
vt 0.875000 0.000000
vt 0.875000 0.250000
vt 0.424995 0.000000
vt 0.275010 0.250000
vt 0.724990 -0.000000
vt 0.575005 0.250000
vt 0.125000 0.200000
vt 0.275010 0.200000
vt 0.424995 0.200000
vt 0.575005 0.200000
vt 0.724990 0.200000
vt 0.875000 0.200000
vn 0.000000 -0.010654 0.999943
vn 0.000000 -0.010654 0.999943
vn 0.000000 -0.010654 0.999943
vn 0.000000 -0.010654 0.999943
vn 0.000000 -1.000000 0.000000
vn 0.000000 -1.000000 0.000000
vn 0.000000 -1.000000 0.000000
vn 0.000000 -1.000000 0.000000
vn 0.000000 -1.000000 0.000000
vn 0.000000 -1.000000 0.000000
vn 0.992906 0.118902 0.000000
vn 0.992906 0.118902 0.000000
vn 0.992906 0.118902 0.000000
vn 0.992906 0.118902 0.000000
vn -0.992906 0.118901 0.000000
vn -0.992906 0.118901 0.000000
vn -0.992906 0.118901 0.000000
vn -0.992906 0.118901 0.000000
vn 0.000000 1.000000 0.000000
vn 0.000000 1.000000 0.000000
vn 0.000000 1.000000 0.000000
vn 0.000000 1.000000 0.000000
vn 0.000000 1.000000 0.000000
vn 0.000000 1.000000 0.000000
vn -0.765097 0.070382 0.640057
vn -0.765097 0.070382 0.640057
vn -0.765097 0.070382 0.640057
vn -0.765097 0.070382 0.640057
vn 0.765097 0.070381 0.640057
vn 0.765097 0.070381 0.640057
vn 0.765097 0.070381 0.640057
vn 0.765097 0.070381 0.640057
vn -0.903390 -0.428711 0.009660
vn -0.903390 -0.428711 0.009660
vn -0.903390 -0.428711 0.009660
vn -0.903390 -0.428711 0.009660
vn -0.691661 -0.436956 0.575043
vn -0.691661 -0.436956 0.575043
vn -0.691661 -0.436956 0.575043
vn -0.691661 -0.436956 0.575043
vn 0.000000 -0.488397 0.872622
vn 0.000000 -0.488397 0.872622
vn 0.000000 -0.488396 0.872622
vn 0.000000 -0.488396 0.872622
vn 0.691661 -0.436956 0.575043
vn 0.691661 -0.436956 0.575043
vn 0.691661 -0.436956 0.575043
vn 0.691661 -0.436956 0.575043
vn 0.903390 -0.428711 0.009660
vn 0.903390 -0.428711 0.009660
vn 0.903390 -0.428711 0.009660
vn 0.903390 -0.428711 0.009660
s off
g platform_obj
usemtl initialShadingGroup
f 8/14/1 15/25/2 16/26/3 12/22/4
f 3/2/5 4/3/6 9/4/7 10/5/8 6/6/9 5/7/10
f 11/16/11 17/27/12 18/28/13 2/18/14
f 13/23/15 14/24/16 7/20/17 1/13/18
f 7/8/19 8/14/20 12/22/21 11/9/22 2/1/23 1/10/24
f 14/24/25 15/25/26 8/14/27 7/20/28
f 16/26/29 17/27/30 11/16/31 12/22/32
f 3/11/33 5/12/34 14/24/35 13/23/36
f 5/12/37 6/19/38 15/25/39 14/24/40
f 16/26/41 15/25/42 6/19/43 10/15/44
f 10/15/45 9/21/46 17/27/47 16/26/48
f 18/28/49 17/27/50 9/21/51 4/17/52
