# This file uses meters as units for non-parametric coordinates.

mtllib divider.mtl
g default
v -50.000000 -0.000000 -0.000008
v 50.000000 -0.000000 -0.000008
v -50.000000 0.000000 240.000000
v 50.000000 0.000000 240.000000
vt 0.000000 0.000000
vt 0.416667 0.000000
vt 0.000000 1.000000
vt 0.416667 1.000000
vn 0.000000 -1.000000 0.000000
vn 0.000000 -1.000000 0.000000
vn 0.000000 -1.000000 0.000000
vn 0.000000 -1.000000 0.000000
s off
g div_obj
usemtl initialShadingGroup
f 1/1/1 2/2/2 4/4/3 3/3/4
